<svg width="36" height="33" viewBox="0 0 36 33" fill="none" xmlns="http://www.w3.org/2000/svg">
<path d="M5.34717 16H7.97852L8.8833 13.0947H13.1167L14.0215 16H16.6528L12.4775 4.02197H9.53076L5.34717 16ZM10.9751 6.34619H11.0249L12.5356 11.2188H9.46436L10.9751 6.34619Z" fill="white"/>
<path d="M27.249 16.551C26.69 18.02 25.949 19.242 25.013 20.256C24.012 19.203 23.245 17.955 22.686 16.551H27.249ZM30.941 16.551V15.043H25.78V12.989H24.207V15.043H19.111V16.551H20.97C21.672 18.449 22.569 20.074 23.739 21.413C22.426 22.414 20.801 23.155 18.877 23.662C19.189 24.039 19.67 24.767 19.852 25.17C21.828 24.546 23.505 23.701 24.922 22.57C26.287 23.727 27.977 24.598 30.07 25.131C30.304 24.689 30.798 23.961 31.175 23.584C29.199 23.142 27.561 22.375 26.222 21.348C27.418 20.048 28.367 18.475 29.069 16.551H30.941Z" fill="white"/>
</svg>
