<svg id="レイヤー_1" data-name="レイヤー 1" xmlns="http://www.w3.org/2000/svg" viewBox="0 0 1620 500"><defs><style>.cls-1{fill:#fff;}</style></defs><path class="cls-1" d="M526.21,138.22a172.53,172.53,0,1,0,156.35,245.5H610a111.12,111.12,0,1,1,21.94-107.39H491.76v53.81h205.9a177.16,177.16,0,0,0,1.1-19.39C698.76,215.47,621.49,138.22,526.21,138.22Z"/><path class="cls-1" d="M298,399.65a111.2,111.2,0,1,1,0-174.15V154.45a172.54,172.54,0,1,0,0,316.23Z"/><rect class="cls-1" x="1091.92" y="145.38" width="61.33" height="329.85"/><rect class="cls-1" x="1091.92" y="14.9" width="61.33" height="69.13"/><path class="cls-1" d="M1502.27,174.7c-27.78-23-63.37-36.82-103.57-36.82a172.54,172.54,0,0,0,0,345.07c43.78,0,82.17-16.34,110.83-43.24l.38,2.62,3.86,32.58h49.81V14.9h-61.31ZM1398.7,421.61a111.19,111.19,0,1,1,111.19-111.19A111.2,111.2,0,0,1,1398.7,421.61Z"/><rect class="cls-1" x="773.93" y="14.9" width="61.36" height="460.33"/><rect class="cls-1" x="932.94" y="14.9" width="61.32" height="460.33"/></svg>